<?xml version="1.0" encoding="utf-8"?>
<!-- Generator: Adobe Illustrator 23.0.3, SVG Export Plug-In . SVG Version: 6.00 Build 0)  -->
<svg version="1.1" id="Layer_1" xmlns="http://www.w3.org/2000/svg" xmlns:xlink="http://www.w3.org/1999/xlink" x="0px" y="0px"
	 width="841.89px" height="595.28px" viewBox="0 0 841.89 595.28" style="enable-background:new 0 0 841.89 595.28;"
	 xml:space="preserve">
<style type="text/css">
	.st0{fill:#3F92CF;}
	.st1{fill:#FFFFFF;}
</style>
<path class="st0" d="M218.43,159.78c0,17.5-14.18,31.68-31.68,31.68c-17.49,0-31.68-14.18-31.68-31.68s14.18-31.68,31.68-31.68
	C204.24,128.1,218.43,142.28,218.43,159.78z"/>
<g>
	<path class="st1" d="M199.13,178.8h-24.77v-38.04h24.77v7.36h-15.98v6.57h14.83v7.36h-14.83v9.4h15.98V178.8z"/>
	<path class="st0" d="M230.35,179.55h-8.3V139.8h8.3V179.55z"/>
	<path class="st0" d="M263.68,150.86l-9.96,28.69h-9.38l-9.89-28.69h8.74l5.99,19.75l5.92-19.75H263.68z"/>
	<path class="st0" d="M276.34,146.77h-8.76v-6.98h8.76V146.77z M276.11,179.55h-8.3v-28.69h8.3V179.55z"/>
	<path class="st0" d="M309.38,179.55h-8.3v-14.23c0-1.16-0.05-2.31-0.16-3.46c-0.11-1.15-0.29-2-0.55-2.54
		c-0.31-0.63-0.76-1.09-1.35-1.38c-0.59-0.29-1.41-0.43-2.47-0.43c-0.75,0-1.51,0.14-2.29,0.41c-0.77,0.27-1.61,0.71-2.52,1.3v20.34
		h-8.3v-28.69h8.3v3.17c1.47-1.28,2.88-2.26,4.24-2.94c1.36-0.68,2.86-1.02,4.51-1.02c2.79,0,4.96,0.9,6.53,2.71
		c1.57,1.81,2.35,4.51,2.35,8.1V179.55z"/>
	<path d="M368.5,179.55h-8.78v-25.47l-6.35,16.53h-6.09l-6.35-16.53v25.47h-8.32v-38.05h10.26l7.7,19.09l7.68-19.09h10.26V179.55z"
		/>
	<path d="M401.74,166.91h-18.95c0.12,2.25,0.89,3.97,2.31,5.16c1.42,1.19,3.51,1.79,6.27,1.79c1.75,0,3.44-0.35,5.08-1.05
		c1.64-0.7,2.94-1.45,3.89-2.25h0.92v7.38c-1.87,0.84-3.63,1.44-5.29,1.81c-1.66,0.37-3.49,0.56-5.5,0.56
		c-5.18,0-9.15-1.29-11.91-3.88c-2.76-2.59-4.14-6.28-4.14-11.06c0-4.74,1.31-8.49,3.92-11.26c2.61-2.77,6.2-4.15,10.75-4.15
		c4.2,0,7.36,1.18,9.47,3.54c2.12,2.36,3.17,5.75,3.17,10.18V166.91z M393.51,161.52c-0.05-1.92-0.48-3.37-1.29-4.34
		c-0.81-0.97-2.08-1.46-3.79-1.46c-1.59,0-2.91,0.46-3.93,1.38c-1.03,0.92-1.6,2.39-1.72,4.42H393.51z"/>
	<path d="M432.22,179.55h-8.3v-2.99c-1.43,1.29-2.76,2.25-4,2.86c-1.24,0.61-2.67,0.92-4.29,0.92c-3.14,0-5.65-1.35-7.53-4.04
		c-1.88-2.69-2.82-6.32-2.82-10.88c0-2.44,0.32-4.59,0.95-6.48c0.64-1.88,1.5-3.5,2.61-4.84c1.04-1.28,2.3-2.27,3.79-2.98
		c1.49-0.71,2.97-1.06,4.46-1.06c1.55,0,2.81,0.18,3.8,0.55c0.99,0.37,2,0.83,3.04,1.39V139.8h8.3V179.55z M423.92,171.66v-14.1
		c-0.58-0.27-1.19-0.47-1.84-0.59c-0.64-0.12-1.23-0.18-1.77-0.18c-2.17,0-3.8,0.75-4.89,2.27c-1.09,1.51-1.63,3.6-1.63,6.28
		c0,2.81,0.44,4.86,1.31,6.13c0.87,1.27,2.27,1.91,4.2,1.91c0.75,0,1.54-0.16,2.39-0.47C422.54,172.58,423.28,172.17,423.92,171.66z
		"/>
	<path d="M448.1,146.77h-8.76v-6.98h8.76V146.77z M447.87,179.55h-8.3v-28.69h8.3V179.55z"/>
	<path d="M470.83,176.51c-0.45,0.38-1,0.83-1.66,1.35c-0.66,0.53-1.28,0.95-1.86,1.25c-0.81,0.41-1.66,0.71-2.53,0.91
		c-0.87,0.2-1.83,0.29-2.88,0.29c-2.45,0-4.51-0.84-6.16-2.53c-1.66-1.69-2.48-3.84-2.48-6.46c0-2.1,0.42-3.81,1.26-5.14
		c0.84-1.33,2.04-2.38,3.59-3.14c1.53-0.77,3.43-1.31,5.7-1.64c2.27-0.32,4.62-0.56,7.06-0.72v-0.15c0-1.58-0.58-2.68-1.75-3.28
		c-1.16-0.6-2.88-0.91-5.15-0.91c-1.36,0-2.82,0.27-4.37,0.8c-1.55,0.54-2.66,0.95-3.33,1.24h-0.76v-6.92
		c0.87-0.26,2.3-0.56,4.27-0.91c1.97-0.35,3.94-0.52,5.92-0.52c4.71,0,8.11,0.8,10.2,2.41c2.09,1.61,3.14,4.14,3.14,7.58v19.52
		h-8.21V176.51z M470.83,172.05v-5.96c-1.12,0.1-2.33,0.24-3.63,0.42c-1.3,0.18-2.29,0.39-2.97,0.62c-0.83,0.29-1.46,0.71-1.9,1.26
		c-0.44,0.55-0.66,1.28-0.66,2.18c0,0.59,0.05,1.08,0.14,1.45c0.09,0.37,0.32,0.73,0.69,1.07c0.35,0.34,0.77,0.59,1.26,0.75
		c0.49,0.16,1.26,0.24,2.3,0.24c0.83,0,1.67-0.19,2.52-0.56C469.44,173.15,470.19,172.66,470.83,172.05z"/>
</g>
</svg>
